<?xml version="1.0" standalone="no"?>
<!DOCTYPE svg PUBLIC "-//W3C//DTD SVG 1.0//EN" "http://www.w3.org/TR/2001/REC-SVG-20010904/DTD/svg10.dtd">
<svg xmlns="http://www.w3.org/2000/svg" xmlns:xlink="http://www.w3.org/1999/xlink" id="body_1" width="300" height="246">

<g transform="matrix(0.48987004 0 0 0.48987004 0.09977394 -31.841553)">
    <path d="M24.5 487.5C 24.5 443.31723 140.45824 407.5 283.5 407.5C 426.54175 407.5 542.5 443.31723 542.5 487.5C 542.5 531.6828 426.54175 567.5 283.5 567.5C 140.45824 567.5 24.5 531.6828 24.5 487.5" stroke="none" fill="#C6C6C6" fill-rule="nonzero" />
    <path d="M210.333 65.331C 104.367 66.105 -12.349 150.637 1.056 276.449C 5.359 316.842 19.589 340.153 53.227 355.479C 89.534 372.023 110.249 410.035 103.632996 468.433C 93.698 473.31302 86.228 479.46402 84.50099 488.448C 92.03199 488.27798 99.44399 488.136 107.09099 492.789C 127.42399 505.164 138.387 520.152 150.06999 544.50903C 151.784 548.08105 158.262 547.35803 158.38199 541.431C 158.55199 532.96405 156.52599 523.97705 153.15599 514.49805C 150.20099 506.18506 156.215 506.51306 160.073 508.39206C 166.472 511.50705 176.407 517.8221 190.463 521.49005C 195.855 522.89703 196.458 517.61304 195.687 514.499C 193.823 506.97702 184.678 503.63702 171.168 495.27002C 166.34799 492.286 170.241 485.53403 176.336 486.919L176.336 486.919L196.56999 489.334C 199.92899 490.09702 201.12498 483.22 197.452 481.459C 183.254 474.65503 168.555 471.36102 143.588 473.66C 131.971 444.39502 113.77699 412.043 127.914 391.979C 140.55301 374.04102 159.13 371.239 167.061 435.46802C 162.059 438.575 155.84601 440.49902 155.729 448.492C 162.93001 445.647 166.936 447.09302 170.52 448.492C 188.432 455.49 205.98201 470.318 223.502 485.801C 227.241 489.104 231.915 484.083 230.493 479.767C 228.355 473.273 222.44 469.108 215.702 459.751C 212.463 455.256 220.732 452.706 226.588 452.875C 240.437 453.271 249.474 461.143 261.76498 464.093C 266.248 465.16898 271.50598 462.129 268.68198 457.176C 265.21 451.091 255.66698 448.052 249.50198 443.763C 245.14499 440.734 246.47699 436.631 252.19899 437.161C 256.104 437.522 260.677 439.432 266.107 438.928C 276.053 438.00302 273.824 431.759 265.224 429.362C 246.188 424.058 225.33301 423.051 203.55899 424.137C 159.72198 415.779 172.00499 339.25 203.55899 333.774C 233.12999 328.642 266.525 320.435 303.487 301.61798C 336.155 296.189 368.322 289.17197 396.426 267.76797C 444.53198 253.29898 508.32898 283.88098 600.667 417.46298C 604.593 423.14398 616.48596 427.40298 610.191 411.11197C 594.298 369.98697 542.01495 317.78397 518.061 279.02698C 493.47998 239.25298 503.72098 217.78398 478.10397 187.77997C 456.77798 162.80197 430.602 161.97697 400.76498 170.41496C 377.304 177.04897 361.53098 163.29796 347.78497 139.14197C 318.42 87.525 265.838 64.927 210.333 65.331zM445.731 203.01C 451.85098 203.01 456.843 207.929 456.843 214.04799C 456.843 220.16699 451.849 225.159 445.731 225.159C 439.61298 225.159 434.693 220.165 434.693 214.048C 434.693 207.929 439.613 203.01 445.731 203.01z" stroke="none" fill="#000000" fill-rule="nonzero" />
</g>
</svg>